<svg width="24" height="24" viewBox="0 0 24 24" fill="none" xmlns="http://www.w3.org/2000/svg"><g clip-path="url(#clip0_598_24620)"><mask id="mask0_598_24620" maskUnits="userSpaceOnUse" x="-6" y="0" width="36" height="24" style="mask-type: alpha;"><path d="M-6 2.4C-6 1.07452 -4.92548 0 -3.6 0H27.6C28.9255 0 30 1.07452 30 2.4V21.6C30 22.9255 28.9255 24 27.6 24H-3.6C-4.92548 24 -6 22.9255 -6 21.6V2.4Z" fill="#C4C4C4"></path></mask><g mask="url(#mask0_598_24620)"><rect x="-6" width="36" height="1.84615" fill="#FF3B30"></rect><rect x="-6" y="1.84619" width="36" height="1.84615" fill="white"></rect><rect x="-6" y="3.69226" width="36" height="1.84615" fill="#FF3B30"></rect><rect x="-6" y="5.53845" width="36" height="1.84615" fill="white"></rect><rect x="-6" y="7.38464" width="36" height="1.84615" fill="#FF3B30"></rect><rect x="-6" y="9.23071" width="36" height="1.84615" fill="white"></rect><rect x="-6" y="11.0769" width="36" height="1.84615" fill="#FF3B30"></rect><rect x="-6" y="12.9231" width="36" height="1.84615" fill="white"></rect><rect x="-6" y="14.7693" width="36" height="1.84615" fill="#FF3B30"></rect><rect x="-6" y="16.6154" width="36" height="1.84615" fill="white"></rect><rect x="-6" y="18.4615" width="36" height="1.84615" fill="#FF3B30"></rect><rect x="-6" y="20.3077" width="36" height="1.84615" fill="white"></rect><rect x="-6" y="22.1538" width="36" height="1.84615" fill="#FF3B30"></rect><path fill-rule="evenodd" clip-rule="evenodd" d="M27.6 0.6H-3.6C-4.59411 0.6 -5.4 1.40589 -5.4 2.4V21.6C-5.4 22.5941 -4.59411 23.4 -3.6 23.4H27.6C28.5941 23.4 29.4 22.5941 29.4 21.6V2.4C29.4 1.40589 28.5941 0.6 27.6 0.6ZM-3.6 0C-4.92548 0 -6 1.07452 -6 2.4V21.6C-6 22.9255 -4.92548 24 -3.6 24H27.6C28.9255 24 30 22.9255 30 21.6V2.4C30 1.07452 28.9255 0 27.6 0H-3.6Z" fill="black" fill-opacity="0.2"></path><path d="M11.955 0H-6V12.9222H11.955V0Z" fill="#0A17A7"></path><path d="M-4.33719 1.06458L-4.50127 0.553467L-4.66592 1.06458H-5.1969L-4.76737 1.37953L-4.93221 1.89125L-4.50312 1.57329L-4.07252 1.88902L-4.23715 1.37621L-3.81659 1.06458H-4.33719Z" fill="white"></path><path d="M-4.33841 3.64663L-4.50178 3.13774L-4.66681 3.64663H-5.19521L-4.76871 3.96082L-4.9349 4.4733L-4.50439 4.15554L-4.07303 4.4733L-4.23813 3.95901L-3.8149 3.64663H-4.33841Z" fill="white"></path><path d="M-4.5014 5.72202L-4.33803 6.23091H-3.81234L-4.23733 6.5446L-4.07265 7.05758L-4.5025 6.74031L-4.93234 7.05758L-4.76698 6.5451L-5.19265 6.23091H-4.6656L-4.5014 5.72202Z" fill="white"></path><path d="M-4.33759 8.818L-4.5014 8.30689L-4.66605 8.818H-5.19265L-4.7672 9.13202L-4.93234 9.64467L-4.5025 9.3274L-4.07265 9.64467L-4.23711 9.13152L-3.81234 8.818H-4.33759Z" fill="white"></path><path d="M-4.5014 10.8932L-4.33803 11.4021H-3.81234L-4.23733 11.7158L-4.07265 12.2288L-4.5025 11.9115L-4.93234 12.2288L-4.76698 11.7163L-5.19265 11.4021H-4.6656L-4.5014 10.8932Z" fill="white"></path><path d="M-2.84652 2.35552L-3.00989 1.84663L-3.17159 2.35552H-3.69895L-3.27193 2.67132L-3.43426 3.18219L-3.00812 2.86642L-2.58114 3.18219L-2.74508 2.67151L-2.31864 2.35552H-2.84652Z" fill="white"></path><path d="M-3.00895 4.43091L-2.84558 4.9398H-2.31988L-2.74488 5.25348L-2.5802 5.76646L-3.01004 5.4492L-3.43988 5.76646L-3.27452 5.25398L-3.7002 4.9398H-3.17315L-3.00895 4.43091Z" fill="white"></path><path d="M-2.84558 7.52466L-3.00895 7.01577L-3.17315 7.52466H-3.7002L-3.27452 7.83885L-3.43988 8.35133L-3.01004 8.03406L-2.5802 8.35133L-2.74488 7.83835L-2.31988 7.52466H-2.84558Z" fill="white"></path><path d="M-3.00895 9.60005L-2.84558 10.1089H-2.31988L-2.74488 10.4226L-2.5802 10.9356L-3.01004 10.6183L-3.43988 10.9356L-3.27452 10.4231L-3.7002 10.1089H-3.17315L-3.00895 9.60005Z" fill="white"></path><path d="M-1.34756 1.06236L-1.51092 0.553467L-1.67512 1.06236H-2.20217L-1.7765 1.37654L-1.94186 1.88902L-1.51202 1.57176L-1.08217 1.88902L-1.24685 1.37604L-0.82186 1.06236H-1.34756Z" fill="white"></path><path d="M-1.51092 3.13774L-1.34756 3.64663H-0.82186L-1.24685 3.96032L-1.08217 4.4733L-1.51202 4.15603L-1.94186 4.4733L-1.7765 3.96082L-2.20217 3.64663H-1.67512L-1.51092 3.13774Z" fill="white"></path><path d="M-1.34756 6.23091L-1.51092 5.72202L-1.67512 6.23091H-2.20217L-1.7765 6.5451L-1.94186 7.05758L-1.51202 6.74031L-1.08217 7.05758L-1.24685 6.5446L-0.82186 6.23091H-1.34756Z" fill="white"></path><path d="M-1.51092 8.30689L-1.34756 8.81578H-0.82186L-1.24648 9.13064L-1.08217 9.64244L-1.51042 9.32636L-1.93967 9.64467L-1.77506 9.13103L-2.20217 8.81578H-1.67402L-1.51092 8.30689Z" fill="white"></path><path d="M-1.34756 11.4021L-1.51092 10.8932L-1.67512 11.4021H-2.20217L-1.7765 11.7163L-1.94186 12.2288L-1.51202 11.9115L-1.08217 12.2288L-1.24685 11.7158L-0.82186 11.4021H-1.34756Z" fill="white"></path><path d="M-0.0129724 1.84663L0.150395 2.35552H0.676091L0.251097 2.66921L0.415778 3.18219L-0.0140662 2.86492L-0.443911 3.18219L-0.278551 2.66971L-0.704224 2.35552H-0.177173L-0.0129724 1.84663Z" fill="white"></path><path d="M0.150395 4.9398L-0.0129724 4.43091L-0.177173 4.9398H-0.704224L-0.278551 5.25398L-0.443911 5.76646L-0.0140662 5.4492L0.415778 5.76646L0.251097 5.25348L0.676091 4.9398H0.150395Z" fill="white"></path><path d="M-0.0129724 7.01577L0.150395 7.52466H0.676091L0.251097 7.83835L0.415778 8.35133L-0.0140662 8.03406L-0.443911 8.35133L-0.278551 7.83885L-0.704224 7.52466H-0.177173L-0.0129724 7.01577Z" fill="white"></path><path d="M0.150395 10.1089L-0.0129724 9.60005L-0.177173 10.1089H-0.704224L-0.278551 10.4231L-0.443911 10.9356L-0.0140662 10.6183L0.415778 10.9356L0.251097 10.4226L0.676091 10.1089H0.150395Z" fill="white"></path><path d="M1.47926 0.553467L1.64263 1.06236H2.16833L1.74333 1.37604L1.90801 1.88902L1.47817 1.57176L1.04833 1.88902L1.21369 1.37654L0.788013 1.06236H1.31506L1.47926 0.553467Z" fill="white"></path><path d="M1.64263 3.64663L1.47926 3.13774L1.31506 3.64663H0.788013L1.21369 3.96082L1.04833 4.4733L1.47817 4.15603L1.90801 4.4733L1.74333 3.96032L2.16833 3.64663H1.64263Z" fill="white"></path><path d="M1.47926 5.72202L1.64263 6.23091H2.16833L1.74333 6.5446L1.90801 7.05758L1.47817 6.74031L1.04833 7.05758L1.21369 6.5451L0.788013 6.23091H1.31506L1.47926 5.72202Z" fill="white"></path><path d="M1.64263 8.81578L1.47926 8.30689L1.31617 8.81578H0.788013L1.21513 9.13103L1.05051 9.64467L1.47977 9.32636L1.90801 9.64244L1.74371 9.13064L2.16833 8.81578H1.64263Z" fill="white"></path><path d="M1.47926 10.8932L1.64263 11.4021H2.16833L1.74333 11.7158L1.90801 12.2288L1.47817 11.9115L1.04833 12.2288L1.21369 11.7163L0.788013 11.4021H1.31506L1.47926 10.8932Z" fill="white"></path><path d="M3.14058 2.35552L2.97721 1.84663L2.81384 2.35552H2.28596L2.71272 2.67051L2.54846 3.18219L2.97721 2.86573L3.40596 3.18219L3.2417 2.67051L3.66846 2.35552H3.14058Z" fill="white"></path><path d="M2.97721 4.43091L3.14058 4.9398H3.66846L3.2417 5.25479L3.40596 5.76646L2.97721 5.45001L2.54846 5.76646L2.71272 5.25479L2.28596 4.9398H2.81384L2.97721 4.43091Z" fill="white"></path><path d="M3.14058 7.52466L2.97721 7.01577L2.81384 7.52466H2.28596L2.71272 7.83965L2.54846 8.35133L2.97721 8.03487L3.40596 8.35133L3.2417 7.83965L3.66846 7.52466H3.14058Z" fill="white"></path><path d="M2.97721 9.60005L3.14058 10.1089H3.66846L3.2417 10.4239L3.40596 10.9356L2.97721 10.6191L2.54846 10.9356L2.71272 10.4239L2.28596 10.1089H2.81384L2.97721 9.60005Z" fill="white"></path><path d="M4.63868 1.06236L4.47531 0.553467L4.31111 1.06236H3.78406L4.20973 1.37654L4.04437 1.88902L4.47422 1.57176L4.90406 1.88902L4.73938 1.37604L5.16438 1.06236H4.63868Z" fill="white"></path><path d="M4.47531 3.13774L4.63868 3.64663H5.16438L4.73938 3.96032L4.90406 4.4733L4.47422 4.15603L4.04437 4.4733L4.20973 3.96082L3.78406 3.64663H4.31111L4.47531 3.13774Z" fill="white"></path><path d="M4.63868 6.23091L4.47531 5.72202L4.31111 6.23091H3.78406L4.20973 6.5451L4.04437 7.05758L4.47422 6.74031L4.90406 7.05758L4.73938 6.5446L5.16438 6.23091H4.63868Z" fill="white"></path><path d="M4.47531 8.30689L4.63868 8.81578H5.16438L4.7396 9.13014L4.90406 9.64244L4.47514 9.32586L4.04437 9.64467L4.21009 9.13023L3.78406 8.81578H4.31138L4.47531 8.30689Z" fill="white"></path><path d="M4.63868 11.4021L4.47531 10.8932L4.31111 11.4021H3.78406L4.20973 11.7163L4.04437 12.2288L4.47422 11.9115L4.90406 12.2288L4.73938 11.7158L5.16438 11.4021H4.63868Z" fill="white"></path><path d="M5.96807 1.84663L6.13144 2.35552H6.65932L6.23256 2.67051L6.39682 3.18219L5.96849 2.86542L5.53932 3.18219L5.70384 2.6697L5.279 2.35552H5.8047L5.96807 1.84663Z" fill="white"></path><path d="M6.13076 4.9398L5.96739 4.43091L5.80319 4.9398H5.27615L5.70182 5.25398L5.53646 5.76646L5.9663 5.4492L6.39615 5.76646L6.23146 5.25348L6.65646 4.9398H6.13076Z" fill="white"></path><path d="M5.96739 7.01577L6.13076 7.52466H6.65646L6.23146 7.83835L6.39615 8.35133L5.9663 8.03406L5.53646 8.35133L5.70182 7.83885L5.27615 7.52466H5.80319L5.96739 7.01577Z" fill="white"></path><path d="M6.13076 10.1089L5.96739 9.60005L5.80319 10.1089H5.27615L5.70182 10.4231L5.53646 10.9356L5.9663 10.6183L6.39615 10.9356L6.23146 10.4226L6.65646 10.1089H6.13076Z" fill="white"></path><path d="M7.46666 0.553467L7.63074 1.06458H8.15573L7.73147 1.37833L7.89541 1.88902L7.46717 1.57379L7.03792 1.89125L7.20218 1.37872L6.77542 1.06458H7.30286L7.46666 0.553467Z" fill="white"></path><path d="M7.63074 3.64886L7.46666 3.13774L7.30286 3.64886H6.77542L7.20218 3.963L7.03792 4.47552L7.46717 4.15807L7.89541 4.4733L7.73147 3.96261L8.15573 3.64886H7.63074Z" fill="white"></path><path d="M7.46666 5.72202L7.63074 6.23313H8.15573L7.73147 6.54689L7.89541 7.05758L7.46717 6.74235L7.03792 7.0598L7.20218 6.54728L6.77542 6.23313H7.30286L7.46666 5.72202Z" fill="white"></path><path d="M7.63074 8.818L7.46666 8.30689L7.30286 8.818H6.77542L7.20218 9.13214L7.03792 9.64467L7.46717 9.32721L7.89541 9.64244L7.73147 9.13175L8.15573 8.818H7.63074Z" fill="white"></path><path d="M7.46666 10.8932L7.63003 11.4021H8.15573L7.73089 11.7163L7.89541 12.2288L7.46625 11.912L7.03792 12.2288L7.20218 11.7171L6.77542 11.4021H7.3033L7.46666 10.8932Z" fill="white"></path><path d="M9.12805 2.35552L8.96469 1.84663L8.80049 2.35552H8.27344L8.69911 2.66971L8.53375 3.18219L8.96359 2.86492L9.39344 3.18219L9.22875 2.66921L9.65375 2.35552H9.12805Z" fill="white"></path><path d="M8.96469 4.43091L9.12805 4.9398H9.65375L9.22875 5.25348L9.39344 5.76646L8.96359 5.4492L8.53375 5.76646L8.69911 5.25398L8.27344 4.9398H8.80049L8.96469 4.43091Z" fill="white"></path><path d="M9.12805 7.52466L8.96469 7.01577L8.80049 7.52466H8.27344L8.69911 7.83885L8.53375 8.35133L8.96359 8.03406L9.39344 8.35133L9.22875 7.83835L9.65375 7.52466H9.12805Z" fill="white"></path><path d="M8.96469 9.60005L9.12805 10.1089H9.65375L9.22875 10.4226L9.39344 10.9356L8.96359 10.6183L8.53375 10.9356L8.69911 10.4231L8.27344 10.1089H8.80049L8.96469 9.60005Z" fill="white"></path><path d="M10.6209 1.06458L10.4563 0.553467L10.2925 1.06458H9.76721L10.192 1.3781L10.0275 1.89125L10.4574 1.57398L10.8872 1.89125L10.7221 1.3786L11.1475 1.06458H10.6209Z" fill="white"></path><path d="M10.4568 3.13774L10.6202 3.64663H11.1459L10.7209 3.96032L10.8856 4.4733L10.4558 4.15603L10.0259 4.4733L10.1913 3.96082L9.7656 3.64663H10.2926L10.4568 3.13774Z" fill="white"></path><path d="M10.6202 6.23091L10.4568 5.72202L10.2926 6.23091H9.7656L10.1913 6.5451L10.0259 7.05758L10.4558 6.74031L10.8856 7.05758L10.7209 6.5446L11.1459 6.23091H10.6202Z" fill="white"></path><path d="M10.4563 8.30689L10.6209 8.818H11.1475L10.7221 9.13202L10.8872 9.64467L10.4574 9.3274L10.0275 9.64467L10.192 9.13152L9.76721 8.818H10.2925L10.4563 8.30689Z" fill="white"></path><path d="M10.6202 11.4021L10.4568 10.8932L10.2926 11.4021H9.7656L10.1913 11.7163L10.0259 12.2288L10.4558 11.9115L10.8856 12.2288L10.7209 11.7158L11.1459 11.4021H10.6202Z" fill="white"></path></g></g><rect x="0.5" y="0.5" width="23" height="23" rx="11.5" stroke="black" stroke-opacity="0.2"></rect><defs><clipPath id="clip0_598_24620"><rect width="24" height="24" rx="12" fill="white"></rect></clipPath></defs></svg>