<svg width="128" height="128" viewBox="0 0 128 128" fill="none" xmlns="http://www.w3.org/2000/svg">
<path d="M112 64.4884V27.7651C112 17.3913 103.485 9 92.9689 9L56 9C41.1566 9 26.8949 14.8324 16.4022 25.2524C5.90945 35.6492 -6.4771e-07 49.7807 0 64.5116C3.2031e-07 71.7963 1.44246 79.012 4.25758 85.7434C7.0727 92.4747 11.1907 98.5838 16.4022 103.748C21.6136 108.912 27.779 112.992 34.5726 115.781C41.3661 118.571 48.6482 120 56 120C70.8434 120 85.1052 114.168 95.5978 103.748C106.09 93.3276 112 79.2193 112 64.5116V64.4884Z" fill="white" style="mix-blend-mode:multiply"/>
<path d="M128 64.4884V27.7651C128 17.3913 119.485 9 108.969 9L72 9C57.1566 9 42.8949 14.8324 32.4022 25.2524C21.9094 35.6492 16 49.7807 16 64.5116C16 71.7963 17.4425 79.012 20.2576 85.7434C23.0727 92.4747 27.1907 98.5838 32.4022 103.748C37.6136 108.912 43.779 112.992 50.5726 115.781C57.3661 118.571 64.6482 120 72 120C86.8434 120 101.105 114.168 111.598 103.748C122.09 93.3276 128 79.2193 128 64.5116V64.4884Z" fill="white" style="mix-blend-mode:multiply"/>
<path style="mix-blend-mode:multiply" d="M112 64.4884V27.7651C112 17.3913 103.485 9 92.9689 9L56 9C41.1566 9 26.8949 14.8324 16.4022 25.2524C5.90945 35.6492 -6.4771e-07 49.7807 0 64.5116C3.2031e-07 71.7963 1.44246 79.012 4.25758 85.7434C7.0727 92.4747 11.1907 98.5838 16.4022 103.748C21.6136 108.912 27.779 112.992 34.5726 115.781C41.3661 118.571 48.6482 120 56 120C70.8434 120 85.1052 114.168 95.5978 103.748C106.09 93.3276 112 79.2193 112 64.5116V64.4884Z" fill="url(#paint0_linear_16_2)"/>
<g style="mix-blend-mode:multiply">
<path d="M128 64.4884V27.7651C128 17.3913 119.485 9 108.969 9L72 9C57.1566 9 42.8948 14.8324 32.4022 25.2524C21.9094 35.6492 16 49.7807 16 64.5116C16 71.7963 17.4425 79.012 20.2576 85.7434C23.0727 92.4747 27.1907 98.5838 32.4022 103.748C37.6136 108.912 43.7791 112.992 50.5726 115.781C57.3661 118.571 64.6482 120 72 120C86.8434 120 101.105 114.168 111.598 103.748C122.09 93.3276 128 79.2193 128 64.5116V64.4884Z" fill="url(#paint1_linear_16_2)"/>
</g>
<defs>
<linearGradient id="paint0_linear_16_2" x1="55.9976" y1="120" x2="55.9976" y2="9.00143" gradientUnits="userSpaceOnUse">
<stop stop-color="#848EF7"/>
<stop offset="1" stop-color="#7F54F0"/>
</linearGradient>
<linearGradient id="paint1_linear_16_2" x1="121.7" y1="110.375" x2="44.1742" y2="33.2343" gradientUnits="userSpaceOnUse">
<stop stop-color="#00E0FF"/>
<stop offset="1" stop-color="#5EECFF"/>
</linearGradient>
</defs>
</svg>
